<?xml version="1.0" encoding="UTF-8"?>
<!DOCTYPE svg PUBLIC "-//W3C//DTD SVG 1.1//EN" "http://www.w3.org/Graphics/SVG/1.1/DTD/svg11.dtd">
<!-- Creator: CorelDRAW 2020 (64 Bit) -->
<svg xmlns="http://www.w3.org/2000/svg" xml:space="preserve" width="39.1854mm" height="39.1854mm" version="1.1" style="shape-rendering:geometricPrecision; text-rendering:geometricPrecision; image-rendering:optimizeQuality; fill-rule:evenodd; clip-rule:evenodd"
viewBox="0 0 398.52 398.52"
 xmlns:xlink="http://www.w3.org/1999/xlink"
 xmlns:xodm="http://www.corel.com/coreldraw/odm/2003">
 <defs>
  <style type="text/css">
   <![CDATA[
    .fil0 {fill:white}
   ]]>
  </style>
 </defs>
 <g id="Camada_x0020_1">
  <metadata id="CorelCorpID_0Corel-Layer"/>
  <path class="fil0" d="M199.26 398.52c67.24,0 126.69,-33.3 162.78,-84.31 -12.08,6.98 -28.03,10.47 -47.48,10.47 -10.16,0 -21.15,-0.82 -32.96,-2.75 -28.84,-4.4 -61.53,-13.46 -100.26,-28.02 -9.61,12.09 -20.33,21.97 -31.86,29.66 -17.3,10.99 -36.26,17.03 -57.13,16.76 -20.88,-0.27 -37.63,-5.77 -37.63,-5.77 -0.08,0 -0.96,-0.25 -2.41,-0.75 36.43,39.76 88.78,64.7 146.95,64.7zm184.72 -124.42c1.14,-2.81 2.22,-5.66 3.23,-8.53 -1.32,0.46 -2.82,0.69 -4.49,0.69 -4.34,0 -7.82,-1.69 -10.41,-5.09l4.61 -5.01c0.88,1.02 1.91,1.85 3.1,2.48 1.18,0.63 2.23,0.94 3.14,0.94 0.98,0 1.79,-0.23 2.39,-0.71 0.61,-0.48 0.91,-1.02 0.91,-1.64 0,-1.15 -1.09,-2.27 -3.27,-3.36l-2.52 -1.26c-4.83,-2.42 -7.24,-5.46 -7.24,-9.1 0,-2.35 0.91,-4.36 2.72,-6.03 1.82,-1.67 4.14,-2.5 6.96,-2.5 1.94,0 3.75,0.43 5.46,1.28 1.7,0.85 3.14,2.08 4.33,3.67l-4.62 4.65c-1.87,-1.87 -3.57,-2.81 -5.11,-2.81 -0.83,0 -1.49,0.18 -1.96,0.53 -0.48,0.36 -0.71,0.8 -0.71,1.32 0,0.4 0.15,0.77 0.45,1.1 0.3,0.34 1.05,0.8 2.24,1.39l2.73 1.37c2.66,1.3 4.55,2.64 5.67,3.99 4.51,-16.64 6.93,-34.15 6.93,-52.21 0,-110.05 -89.21,-199.26 -199.26,-199.26 -110.05,0 -199.26,89.21 -199.26,199.26 0,24.26 4.34,47.51 12.28,69.01 10.57,-13.56 33.71,-18.03 68.81,-12.8 32.96,4.94 68.12,16.48 89.54,24.45 15.38,-17.85 31.04,-42.57 40.1,-71.14 0.55,-2.2 1.37,-4.12 1.92,-6.32 -3.3,3.85 -6.87,7.14 -10.16,10.44 -13.46,12.91 -26.92,22.52 -40.38,29.39 -15.11,7.69 -29.12,11.54 -42.3,11.54 -6.59,0 -13.18,-1.1 -19.5,-3.02 -22.52,-7.69 -32.69,-26.92 -33.51,-28.57 -7.42,-13.73 -9.89,-29.66 -7.69,-46.97 1.92,-13.46 6.59,-28.29 14.28,-43.4 12.63,-24.72 28.57,-42.57 29.94,-44.22 1.37,-1.92 15.66,-18.95 38.45,-36.26 13.73,-10.71 27.74,-18.95 41.48,-25 17.58,-7.69 34.88,-11.81 51.36,-11.81 1.65,-0.28 18.13,-0.55 25.82,9.61 4.4,5.49 5.22,13.18 2.2,22.25 -3.02,8.79 -9.34,17.58 -17.85,24.45 -5.77,4.67 -12.63,8.24 -20.05,10.99 -11.26,4.39 -27.19,7.69 -39.83,-0.55 0,0 -3.57,-2.47 -4.39,-6.87 -0.55,-3.02 0.27,-8.24 4.12,-12.63 0,0 2.75,-4.12 7.14,-0.27 4.94,4.12 42.03,11.81 57.96,-9.89 1.65,-2.75 3.02,-5.49 4.12,-8.24 1.92,-6.04 1.65,-10.44 -0.82,-13.73 -3.02,-3.85 -9.34,-4.94 -13.46,-5.77 -3.57,-0.27 -8.52,0 -8.52,0 -67.02,5.22 -118.38,93.94 -118.38,93.94 -54.39,87.35 -26.37,113.99 -20.6,118.38 3.3,2.2 7.14,4.12 11.54,5.49 3.85,1.37 7.69,2.2 11.81,2.47 23.07,0.82 60.7,-23.07 82.95,-44.5 7.69,-7.69 14.83,-15.66 21.42,-23.62 1.1,-5.22 2.75,-15.11 2.75,-15.11 4.39,-30.76 12.09,-49.72 23.07,-56.03 4.94,-2.75 9.34,-2.2 10.99,-1.65 4.12,0.82 6.87,3.85 7.42,8.24 1.1,6.04 -1.37,15.11 -6.87,26.92 -5.22,11.26 -12.63,23.9 -21.7,36.53 -2.47,3.3 -4.94,6.59 -7.69,9.89 -4.67,23.35 -11.81,46.14 -20.87,65.65 -5.77,13.18 -12.36,25.27 -19.78,35.71 37.08,13.73 68.39,22.25 95.86,26.37 10.16,1.65 19.5,2.47 28.29,2.75 42.3,0 55.48,-34.33 55.21,-40.65 0,-6.04 4.67,-5.49 4.67,-5.49 5.77,-0.27 10.44,2.2 12.63,4.67l0.2 0.23zm-367.31 5.04c5.8,13.23 12.99,25.71 21.39,37.25 26.88,11.73 78.98,10.7 113.9,-18.07 3.85,-3.02 7.97,-6.59 12.09,-10.99 -21.42,-7.69 -53.84,-18.13 -84.05,-22.52 -43.12,-6.32 -57.68,3.02 -62.35,12.36 -0.36,0.66 -0.68,1.31 -0.97,1.97zm252.31 -43.42l7.47 0 0 29.81 -7.47 0 0 -3.17c-1.46,1.39 -2.93,2.38 -4.4,2.98 -1.47,0.61 -3.07,0.92 -4.78,0.92 -3.86,0 -7.2,-1.49 -10.01,-4.47 -2.82,-2.98 -4.22,-6.68 -4.22,-11.11 0,-4.59 1.37,-8.36 4.09,-11.3 2.72,-2.93 6.03,-4.4 9.92,-4.4 1.8,0 3.47,0.34 5.04,1 1.57,0.67 3.02,1.68 4.36,3l0 -3.27zm-7.87 6.12c-2.32,0 -4.25,0.81 -5.77,2.45 -1.53,1.63 -2.3,3.72 -2.3,6.28 0,2.57 0.78,4.69 2.34,6.35 1.56,1.66 3.48,2.49 5.76,2.49 2.35,0 4.3,-0.81 5.85,-2.45 1.55,-1.63 2.33,-3.77 2.33,-6.42 0,-2.59 -0.78,-4.69 -2.33,-6.3 -1.54,-1.6 -3.51,-2.4 -5.88,-2.4zm26.12 -6.12l6.46 0 0 3.79c0.69,-1.48 1.61,-2.6 2.75,-3.37 1.15,-0.77 2.4,-1.15 3.76,-1.15 0.96,0 1.98,0.25 3.03,0.77l-2.32 6.46c-0.87,-0.44 -1.59,-0.65 -2.15,-0.65 -1.14,0 -2.12,0.71 -2.9,2.13 -0.8,1.42 -1.19,4.21 -1.19,8.36l0.03 1.45 0 12.02 -7.47 0 0 -29.81zm25.58 -11l7.47 0 0 11 4.44 0 0 6.46 -4.44 0 0 23.36 -7.47 0 0 -23.36 -3.82 0 0 -6.46 3.82 0 0 -11zm50.76 28.01l-24 0c0.35,2.12 1.27,3.82 2.77,5.08 1.5,1.25 3.42,1.88 5.74,1.88 2.79,0 5.17,-0.98 7.18,-2.95l6.27 2.97c-1.56,2.23 -3.44,3.87 -5.62,4.95 -2.19,1.07 -4.78,1.6 -7.79,1.6 -4.66,0 -8.46,-1.47 -11.39,-4.42 -2.93,-2.94 -4.4,-6.62 -4.4,-11.05 0,-4.54 1.47,-8.31 4.4,-11.3 2.93,-3 6.6,-4.5 11.02,-4.5 4.69,0 8.51,1.5 11.44,4.48 2.94,2.99 4.41,6.93 4.41,11.85l-0.03 1.41zm-7.44 -5.84c-0.5,-1.63 -1.47,-2.96 -2.92,-3.98 -1.46,-1.02 -3.14,-1.53 -5.07,-1.53 -2.09,0 -3.91,0.57 -5.49,1.72 -0.98,0.71 -1.9,1.98 -2.74,3.78l16.23 0zm-101.45 -129.3c-1.1,5.22 -2.75,11.26 -7.69,19.5 -3.85,6.87 -8.79,14.56 -14.56,22.52 3.02,-8.79 11.26,-32.14 14.56,-39.28 2.2,-4.67 4.67,-6.87 6.04,-6.59 1.37,0.27 1.92,2.2 1.65,3.85zm70.86 38.18l0 0c-1.65,0 -3.3,0.82 -4.12,2.47 -41.48,68.39 -59.6,65.65 -59.6,65.65 -10.44,-6.04 30.76,-70.59 45.05,-92.56 1.92,-3.02 -0.27,-7.14 -3.85,-7.14l-7.97 0c-3.3,0 -6.59,1.65 -8.79,4.39 -7.42,9.89 -25,34.61 -34.61,60.98 -15.11,41.2 8.79,41.75 8.79,41.75 21.97,3.02 57.68,-54.39 67.57,-70.87 1.37,-2.2 -0.27,-4.67 -2.47,-4.67zm-20.87 -36.81c5.22,0 9.34,-2.47 9.34,-5.49 0,-3.02 -4.12,-5.49 -9.34,-5.49 -4.94,0 -9.34,2.47 -9.34,5.49 0,3.02 4.39,5.49 9.34,5.49z"/>
 </g>
</svg>
