<?xml version="1.0" encoding="UTF-8"?>
<!DOCTYPE svg PUBLIC "-//W3C//DTD SVG 1.1//EN" "http://www.w3.org/Graphics/SVG/1.1/DTD/svg11.dtd">
<!-- Creator: CorelDRAW 2020 (64 Bit) -->
<svg xmlns="http://www.w3.org/2000/svg" xml:space="preserve" width="7.7273mm" height="7.7273mm" version="1.1" style="shape-rendering:geometricPrecision; text-rendering:geometricPrecision; image-rendering:optimizeQuality; fill-rule:evenodd; clip-rule:evenodd"
viewBox="0 0 16.37 16.37"
 xmlns:xlink="http://www.w3.org/1999/xlink"
 xmlns:xodm="http://www.corel.com/coreldraw/odm/2003"
 enable-background="new 0 0 32 32">
 <defs>
  <style type="text/css">
   <![CDATA[
    .fil0 {fill:#FF99CC;fill-rule:nonzero}
   ]]>
  </style>
 </defs>
 <g id="Camada_x0020_1">
  <metadata id="CorelCorpID_0Corel-Layer"/>
  <g id="_3844432_magnifier_search_zoom_icon.svg">
   <path id="XMLID_223_" class="fil0" d="M0.4 14.04l3.46 -3.46c-0.72,-1.08 -1.13,-2.37 -1.13,-3.76 0,-3.76 3.06,-6.82 6.82,-6.82 3.76,0 6.82,3.06 6.82,6.82 0,3.76 -3.06,6.82 -6.82,6.82 -1.39,0 -2.68,-0.42 -3.76,-1.13l-3.46 3.46c-0.53,0.53 -1.4,0.53 -1.93,0 -0.53,-0.53 -0.53,-1.4 0,-1.93zm13.92 -7.22c0,-2.63 -2.14,-4.77 -4.77,-4.77 -2.63,0 -4.77,2.14 -4.77,4.77 0,2.63 2.14,4.77 4.77,4.77 2.63,0 4.77,-2.14 4.77,-4.77z"/>
  </g>
 </g>
</svg>
