<?xml version="1.0" encoding="UTF-8"?>
<!DOCTYPE svg PUBLIC "-//W3C//DTD SVG 1.1//EN" "http://www.w3.org/Graphics/SVG/1.1/DTD/svg11.dtd">
<!-- Creator: CorelDRAW 2020 (64 Bit) -->
<svg xmlns="http://www.w3.org/2000/svg" xml:space="preserve" width="14.8162mm" height="14.8162mm" version="1.1" style="shape-rendering:geometricPrecision; text-rendering:geometricPrecision; image-rendering:optimizeQuality; fill-rule:evenodd; clip-rule:evenodd"
viewBox="0 0 81.88 81.88"
 xmlns:xlink="http://www.w3.org/1999/xlink"
 xmlns:xodm="http://www.corel.com/coreldraw/odm/2003">
 <defs>
  <style type="text/css">
   <![CDATA[
    .fil0 {fill:#FA50A5;fill-rule:nonzero}
   ]]>
  </style>
 </defs>
 <g id="Camada_x0020_1">
  <metadata id="CorelCorpID_0Corel-Layer"/>
  <path class="fil0" d="M40.94 19.64c-11.56,0 -21.13,9.41 -21.13,21.13 0,11.72 9.41,21.13 21.13,21.13 11.72,0 21.13,-9.57 21.13,-21.13 0,-11.56 -9.57,-21.13 -21.13,-21.13zm34.34 -12.88c-4.29,-4.46 -10.4,-6.77 -17.33,-6.77l-34.01 0c-14.36,0 -23.94,9.57 -23.94,23.94l0 33.84c0,7.1 2.31,13.21 6.93,17.66 4.46,4.29 10.4,6.44 17.17,6.44l33.68 0c7.1,0 13.04,-2.31 17.33,-6.44 4.46,-4.29 6.77,-10.4 6.77,-17.5l0 -34.01c0,-6.93 -2.31,-12.88 -6.6,-17.17zm-0.66 51.17c0,5.12 -1.82,9.24 -4.79,12.05 -2.97,2.81 -7.1,4.29 -12.05,4.29l-33.68 0c-4.95,0 -9.08,-1.49 -12.05,-4.29 -2.97,-2.97 -4.46,-7.1 -4.46,-12.21l0 -33.84c0,-4.95 1.49,-9.08 4.46,-12.05 2.81,-2.81 7.1,-4.29 12.05,-4.29l34.01 0c4.95,0 9.08,1.49 12.05,4.46 2.81,2.97 4.46,7.1 4.46,11.89l0 34.01 0 0zm-6.93 -38.79c0,-2.64 -2.14,-4.79 -4.79,-4.79 -2.64,0 -4.79,2.14 -4.79,4.79 0,2.64 2.14,4.79 4.79,4.79 2.64,0 4.79,-2.14 4.79,-4.79zm-26.74 35.16c-7.43,0 -13.54,-6.11 -13.54,-13.54 0,-7.43 6.11,-13.54 13.54,-13.54 7.43,0 13.54,6.11 13.54,13.54 0,7.43 -6.11,13.54 -13.54,13.54z"/>
 </g>
</svg>
