<?xml version="1.0" encoding="UTF-8"?>
<!DOCTYPE svg PUBLIC "-//W3C//DTD SVG 1.1//EN" "http://www.w3.org/Graphics/SVG/1.1/DTD/svg11.dtd">
<!-- Creator: CorelDRAW 2020 (64 Bit) -->
<svg xmlns="http://www.w3.org/2000/svg" xml:space="preserve" width="14.8167mm" height="14.8167mm" version="1.1" style="shape-rendering:geometricPrecision; text-rendering:geometricPrecision; image-rendering:optimizeQuality; fill-rule:evenodd; clip-rule:evenodd"
viewBox="0 0 63.49 63.49"
 xmlns:xlink="http://www.w3.org/1999/xlink"
 xmlns:xodm="http://www.corel.com/coreldraw/odm/2003">
 <defs>
  <style type="text/css">
   <![CDATA[
    .fil2 {fill:#47B347;fill-rule:nonzero}
    .fil1 {fill:#99FF99;fill-rule:nonzero}
    .fil0 {fill:white;fill-rule:nonzero}
    .fil3 {fill:white;fill-rule:nonzero}
   ]]>
  </style>
 </defs>
 <g id="Camada_x0020_1">
  <metadata id="CorelCorpID_0Corel-Layer"/>
  <g id="_1733449965696">
   <path class="fil0" d="M31.72 61.95c16.63,0 30.19,-13.57 30.19,-30.21 0,-8.09 -3.12,-15.67 -8.85,-21.35 -5.68,-5.73 -13.25,-8.86 -21.33,-8.86 -16.63,0 -30.19,13.52 -30.19,30.21 0,5.33 1.38,10.5 4.04,15.1l-2.87 10.55c-0.61,2.25 1.43,4.35 3.73,3.74l10.9 -2.87c4.35,2.41 9.31,3.69 14.38,3.69l0 0z"/>
   <path class="fil1" d="M31.72 55.81c-3.99,0 -7.98,-1.02 -11.51,-2.92 -0.92,-0.51 -1.94,-0.77 -2.92,-0.77 -0.51,0 -1.02,0.05 -1.53,0.2l-5.73 1.48 1.48 -5.38c0.41,-1.59 0.2,-3.28 -0.61,-4.71 -2.15,-3.64 -3.22,-7.78 -3.22,-11.98 0,-13.31 10.8,-24.07 24.05,-24.07 6.45,0 12.48,2.51 17.04,7.07 4.5,4.51 7.01,10.55 7.01,17 0,13.26 -10.8,24.07 -24.05,24.07l0 0z"/>
   <path class="fil2" d="M54.18 9.32c-5.99,-5.99 -13.97,-9.32 -22.46,-9.32 -17.5,0 -31.72,14.23 -31.72,31.75 0,5.38 1.33,10.65 3.94,15.31l-2.71 9.93c-0.46,1.59 0,3.23 1.18,4.4 1.18,1.18 2.81,1.64 4.4,1.23l10.33 -2.71c4.5,2.36 9.52,3.58 14.63,3.58 17.5,0 31.72,-14.23 31.72,-31.75 -0.05,-8.45 -3.33,-16.44 -9.31,-22.43zm-22.46 51.1c-4.76,0 -9.52,-1.23 -13.71,-3.48 -0.2,-0.1 -0.46,-0.2 -0.72,-0.2 -0.15,0 -0.26,0 -0.41,0.05l-10.9 2.87c-0.77,0.2 -1.28,-0.2 -1.48,-0.41 -0.2,-0.2 -0.61,-0.72 -0.41,-1.48l2.87 -10.55c0.1,-0.41 0.05,-0.82 -0.15,-1.18 -2.46,-4.3 -3.73,-9.27 -3.73,-14.29 0,-15.82 12.84,-28.67 28.65,-28.67 7.67,0 14.89,2.97 20.26,8.4 5.42,5.43 8.44,12.65 8.39,20.28 0,15.82 -12.84,28.67 -28.65,28.67z"/>
   <path class="fil3" d="M46.51 42.55c-0.61,1.74 -3.68,3.48 -5.12,3.58 -1.38,0.1 -2.66,0.61 -9.06,-1.89 -7.67,-3.02 -12.53,-10.91 -12.89,-11.42 -0.36,-0.51 -3.07,-4.1 -3.07,-7.83 0,-3.74 1.94,-5.53 2.66,-6.3 0.72,-0.77 1.48,-0.92 2,-0.92 0.51,0 1.02,0 1.43,0 0.56,0 1.13,0.05 1.69,1.28 0.67,1.48 2.15,5.22 2.3,5.58 0.2,0.36 0.31,0.82 0.05,1.33 -0.26,0.51 -0.36,0.82 -0.77,1.28 -0.36,0.46 -0.82,0.97 -1.13,1.33 -0.36,0.36 -0.77,0.77 -0.31,1.54 0.46,0.77 1.94,3.23 4.2,5.22 2.87,2.56 5.32,3.38 6.09,3.74 0.77,0.36 1.18,0.31 1.64,-0.2 0.46,-0.51 1.89,-2.2 2.4,-2.97 0.51,-0.77 1.02,-0.61 1.69,-0.36 0.72,0.26 4.4,2.1 5.17,2.46 0.77,0.36 1.28,0.56 1.43,0.87 0.2,0.41 0.2,1.89 -0.41,3.69z"/>
  </g>
 </g>
</svg>
