<?xml version="1.0" encoding="UTF-8"?>
<!DOCTYPE svg PUBLIC "-//W3C//DTD SVG 1.1//EN" "http://www.w3.org/Graphics/SVG/1.1/DTD/svg11.dtd">
<!-- Creator: CorelDRAW 2020 (64 Bit) -->
<svg xmlns="http://www.w3.org/2000/svg" xml:space="preserve" width="47.9776mm" height="13.0412mm" version="1.1" style="shape-rendering:geometricPrecision; text-rendering:geometricPrecision; image-rendering:optimizeQuality; fill-rule:evenodd; clip-rule:evenodd"
viewBox="0 0 4797.76 1304.12"
 xmlns:xlink="http://www.w3.org/1999/xlink"
 xmlns:xodm="http://www.corel.com/coreldraw/odm/2003">
 <defs>
  <style type="text/css">
   <![CDATA[
    .fil0 {fill:#FA50A5}
   ]]>
  </style>
 </defs>
 <g id="Camada_x0020_1">
  <metadata id="CorelCorpID_0Corel-Layer"/>
  <path class="fil0" d="M584.8 526.38l13.4 46.41c4.48,19.34 8.29,32.91 16.41,51.07 39.11,87.54 106.32,146.53 185.95,196.37 260.91,163.32 538.46,79.64 821.36,-6.41 89.99,-27.37 46.19,-23.39 185.81,33.75 39.03,15.98 150.03,63.42 178.84,83.54 -31.55,8.88 -214.61,92.31 -304.61,122.69 -372.5,125.75 -684.94,224.61 -1099.16,141.62 -169.13,-33.89 -470.18,-156.7 -523.43,-338.95 -79.82,-273.19 340.47,-334.67 525.43,-330.09zm4212.96 88.51l0 63.06c-6.38,62 -31.72,122.59 -77.25,175.91 -88.54,103.72 -215.75,168.69 -343.45,211.29 -169.47,56.55 -302.7,63.7 -477.09,29.09 -289.05,-57.36 -571.1,-161.79 -842.39,-274.59 -53.47,-22.23 -146.4,-80.44 -200.44,-60.54 -95.11,35.04 -596.52,206.98 -611.94,220.73 72.46,39.2 213.08,98.14 303.71,138.58 97.76,43.62 213.41,87.5 307.26,135.04l-20.68 50.66c-129.76,-47.17 -297.01,-124.41 -421.56,-185.65 -66.78,-32.84 -140.72,-59.99 -207.22,-92.64 -72.2,-35.46 -79.33,-6.38 -224.36,36 -315.94,92.3 -655.29,193.78 -984.74,214.7 -287.28,18.23 -720.53,-33.74 -915.25,-277.85 -58.72,-73.61 -78.79,-95.97 -82.36,-171.1l0 -58.27c14.98,-267.46 390.82,-294.74 592.22,-295.49 54.91,-170.38 158.23,-258.53 326.9,-317.8 359.49,-126.33 721.99,-24.7 1064.16,103.7 77.07,28.92 152.9,60.91 227.93,94.41 127.29,56.84 86.84,69.55 220.46,25.08 416.53,-138.61 1080.72,-431.5 1534.92,-371.11 213.08,28.32 302.03,47.37 381.38,255.82 150.35,39.45 277.03,34.61 382.42,179.82 38.58,53.17 61.37,111.91 67.37,171.15zm-3028.59 158.79l473.24 -156.47c35.27,-12.76 199.78,-84.2 224.33,-76.22 61.04,19.84 153.49,90.05 217.01,105.25 -35.67,25.31 -476.11,192.63 -566.53,228.11 -75.71,29.73 -51.8,24.84 -121.01,-5.35 -61.16,-26.69 -167.22,-81.21 -227.04,-95.32zm-1116.98 -247.38c240.95,0 569.02,88.06 796.88,177.67 30.83,12.12 72.49,32.47 102.7,39.73 -33.84,23.54 -192.6,70.64 -245.85,83.99 -98.07,24.58 -189.01,43.53 -296.59,16.16 -132.55,-33.72 -356.71,-144.48 -357.14,-317.55zm0 -59.97c35.42,-80.39 39.65,-107.49 114.5,-162.88 332.34,-245.93 744.06,-140.89 1104.64,-21.74 66.45,21.96 137.68,48.27 202.04,75.33l141.34 61.14c10.33,4.22 16.62,5.6 26.91,10.64 1.98,0.98 7.47,3.94 9.12,4.96 9.91,6.08 6.74,4.15 10.9,8.49 -28.77,24.86 -309.53,147.54 -362.9,168.61 -278.75,110.07 -224.59,120.7 -383.37,56.77 -249.07,-100.28 -597.21,-200.74 -863.18,-201.32zm2985.31 286.56c30.16,-23.02 49.14,-19.17 66.38,-61.1 55.88,-135.91 -153.47,-202.04 -195.19,-90.15 -54.2,145.38 142.98,240.6 257.39,259.16 165.56,26.86 280.56,-24.51 405.25,-121.33 93.33,-72.47 184.89,-228.83 184.14,-348.11 85.7,-1.42 238.73,26.38 305.94,83.88 84.61,72.38 105.28,184.65 54.14,283.7 -84.8,164.2 -330.62,262.09 -505.47,289.16 -213.84,33.11 -455.68,-38.25 -659.56,-106.68 -89.24,-29.95 -533.9,-178.28 -574.41,-220.21 30.75,-24.65 585.05,-206.16 615.62,-216.49 152.24,-51.45 567.33,-164.19 706.69,-115.42 5.55,185.01 -213,410.63 -430.33,422.13 -68.08,3.61 -185.44,-12.92 -230.59,-58.54zm-1101.76 -243.51c1.32,-0.85 3.6,-3.43 4.18,-2.14l197.44 -84.75c284.29,-114.3 862.11,-361.08 1138.33,-361.07 131.55,0 368.09,41.1 404.81,195.01 -113.66,-0.1 -103.24,-10.74 -248.52,13.85 -375.45,63.55 -748.3,159.98 -1107.28,294.57 -124.86,46.81 -138.48,66.18 -199.13,39.82 -39.52,-17.18 -158.25,-70.33 -189.83,-95.29z"/>
 </g>
</svg>
