<?xml version="1.0" encoding="UTF-8"?>
<!DOCTYPE svg PUBLIC "-//W3C//DTD SVG 1.1//EN" "http://www.w3.org/Graphics/SVG/1.1/DTD/svg11.dtd">
<!-- Creator: CorelDRAW 2020 (64 Bit) -->
<svg xmlns="http://www.w3.org/2000/svg" xml:space="preserve" width="27.0934mm" height="27.0934mm" version="1.1" style="shape-rendering:geometricPrecision; text-rendering:geometricPrecision; image-rendering:optimizeQuality; fill-rule:evenodd; clip-rule:evenodd"
viewBox="0 0 200.91 200.91"
 xmlns:xlink="http://www.w3.org/1999/xlink"
 xmlns:xodm="http://www.corel.com/coreldraw/odm/2003">
 <defs>
  <style type="text/css">
   <![CDATA[
    .fil0 {fill:#FADCEB}
   ]]>
  </style>
 </defs>
 <g id="Camada_x0020_1">
  <metadata id="CorelCorpID_0Corel-Layer"/>
  <path class="fil0" d="M100.45 200.91c33.9,0 63.87,-16.79 82.06,-42.5 -6.09,3.52 -14.13,5.28 -23.94,5.28 -5.12,0 -10.66,-0.41 -16.62,-1.39 -14.54,-2.22 -31.02,-6.79 -50.54,-14.13 -4.85,6.1 -10.25,11.08 -16.06,14.95 -8.72,5.54 -18.28,8.59 -28.8,8.45 -10.53,-0.14 -18.97,-2.91 -18.97,-2.91 -0.04,0 -0.48,-0.13 -1.22,-0.38 18.37,20.04 44.76,32.62 74.08,32.62l0 0zm93.12 -62.72c0.57,-1.42 1.12,-2.85 1.63,-4.3 -0.67,0.23 -1.42,0.35 -2.26,0.35 -2.19,0 -3.94,-0.85 -5.25,-2.57l2.32 -2.53c0.44,0.51 0.96,0.93 1.56,1.25 0.59,0.32 1.12,0.47 1.58,0.47 0.49,0 0.9,-0.12 1.21,-0.36 0.31,-0.24 0.46,-0.51 0.46,-0.83 0,-0.58 -0.55,-1.14 -1.65,-1.69l-1.27 -0.63c-2.43,-1.22 -3.65,-2.75 -3.65,-4.59 0,-1.18 0.46,-2.2 1.37,-3.04 0.92,-0.84 2.09,-1.26 3.51,-1.26 0.98,0 1.89,0.22 2.75,0.65 0.86,0.43 1.58,1.05 2.18,1.85l-2.33 2.34c-0.94,-0.94 -1.8,-1.42 -2.58,-1.42 -0.42,0 -0.75,0.09 -0.99,0.27 -0.24,0.18 -0.36,0.4 -0.36,0.67 0,0.2 0.08,0.39 0.23,0.55 0.15,0.17 0.53,0.4 1.13,0.7l1.38 0.69c1.34,0.65 2.29,1.33 2.86,2.01 2.27,-8.39 3.49,-17.22 3.49,-26.32 0,-55.48 -44.97,-100.45 -100.45,-100.45 -55.48,0 -100.45,44.97 -100.45,100.45 0,12.23 2.19,23.95 6.19,34.79 5.33,-6.84 16.99,-9.09 34.69,-6.45 16.62,2.49 34.34,8.31 45.14,12.33 7.75,-9 15.65,-21.46 20.22,-35.86 0.28,-1.11 0.69,-2.08 0.97,-3.19 -1.66,1.94 -3.46,3.6 -5.12,5.26 -6.79,6.51 -13.57,11.35 -20.36,14.82 -7.62,3.88 -14.68,5.82 -21.32,5.82 -3.32,0 -6.64,-0.55 -9.83,-1.52 -11.35,-3.88 -16.48,-13.57 -16.89,-14.4 -3.74,-6.92 -4.99,-14.95 -3.88,-23.68 0.97,-6.79 3.32,-14.26 7.2,-21.88 6.37,-12.46 14.4,-21.46 15.09,-22.29 0.69,-0.97 7.9,-9.55 19.38,-18.28 6.92,-5.4 13.98,-9.55 20.91,-12.6 8.86,-3.88 17.58,-5.95 25.89,-5.95 0.83,-0.14 9.14,-0.28 13.02,4.84 2.22,2.77 2.63,6.64 1.11,11.22 -1.52,4.43 -4.71,8.86 -9,12.33 -2.91,2.35 -6.37,4.15 -10.11,5.54 -5.68,2.21 -13.71,3.88 -20.08,-0.28 0,0 -1.8,-1.25 -2.21,-3.46 -0.28,-1.52 0.14,-4.15 2.08,-6.37 0,0 1.39,-2.08 3.6,-0.14 2.49,2.08 21.19,5.95 29.22,-4.99 0.83,-1.39 1.52,-2.77 2.08,-4.15 0.97,-3.04 0.83,-5.26 -0.41,-6.92 -1.52,-1.94 -4.71,-2.49 -6.79,-2.91 -1.8,-0.14 -4.3,0 -4.3,0 -33.79,2.63 -59.68,47.36 -59.68,47.36 -27.42,44.04 -13.29,57.47 -10.39,59.68 1.66,1.11 3.6,2.08 5.82,2.77 1.94,0.69 3.88,1.11 5.95,1.25 11.63,0.41 30.6,-11.63 41.82,-22.43 3.88,-3.88 7.48,-7.9 10.8,-11.91 0.55,-2.63 1.39,-7.62 1.39,-7.62 2.21,-15.51 6.09,-25.07 11.63,-28.25 2.49,-1.39 4.71,-1.11 5.54,-0.83 2.08,0.41 3.46,1.94 3.74,4.15 0.55,3.05 -0.69,7.62 -3.46,13.57 -2.63,5.68 -6.37,12.05 -10.94,18.42 -1.25,1.66 -2.49,3.32 -3.88,4.99 -2.35,11.77 -5.95,23.26 -10.52,33.1 -2.91,6.64 -6.23,12.74 -9.97,18 18.69,6.92 34.48,11.22 48.33,13.29 5.12,0.83 9.83,1.25 14.26,1.39 21.32,0 27.97,-17.31 27.83,-20.49 0,-3.05 2.35,-2.77 2.35,-2.77 2.91,-0.14 5.26,1.11 6.37,2.35l0.1 0.12 -0 -0.01zm-185.18 2.54c2.92,6.67 6.55,12.96 10.78,18.78 13.55,5.91 39.82,5.39 57.42,-9.11 1.94,-1.52 4.02,-3.32 6.09,-5.54 -10.8,-3.88 -27.14,-9.14 -42.37,-11.35 -21.74,-3.19 -29.08,1.52 -31.43,6.23 -0.18,0.33 -0.34,0.66 -0.49,0.99l-0.01 0zm127.2 -21.89l3.77 0 0 15.03 -3.77 0 0 -1.6c-0.74,0.7 -1.48,1.2 -2.22,1.5 -0.74,0.31 -1.55,0.46 -2.41,0.46 -1.95,0 -3.63,-0.75 -5.05,-2.25 -1.42,-1.5 -2.13,-3.37 -2.13,-5.6 0,-2.31 0.69,-4.21 2.06,-5.7 1.37,-1.48 3.04,-2.22 5,-2.22 0.91,0 1.75,0.17 2.54,0.5 0.79,0.34 1.52,0.85 2.2,1.51l0 -1.65 -0 0zm-3.97 3.09c-1.17,0 -2.14,0.41 -2.91,1.24 -0.77,0.82 -1.16,1.88 -1.16,3.17 0,1.3 0.39,2.36 1.18,3.2 0.79,0.84 1.75,1.25 2.9,1.25 1.18,0 2.17,-0.41 2.95,-1.24 0.78,-0.82 1.17,-1.9 1.17,-3.24 0,-1.31 -0.39,-2.36 -1.17,-3.18 -0.78,-0.81 -1.77,-1.21 -2.96,-1.21l0 0zm13.17 -3.09l3.26 0 0 1.91c0.35,-0.75 0.81,-1.31 1.39,-1.7 0.58,-0.39 1.21,-0.58 1.9,-0.58 0.48,0 1,0.13 1.53,0.39l-1.17 3.26c-0.44,-0.22 -0.8,-0.33 -1.08,-0.33 -0.57,0 -1.07,0.36 -1.46,1.07 -0.4,0.72 -0.6,2.12 -0.6,4.21l0.01 0.73 0 6.06 -3.77 0 0 -15.03zm12.9 -5.55l3.77 0 0 5.55 2.24 0 0 3.26 -2.24 0 0 11.78 -3.77 0 0 -11.78 -1.93 0 0 -3.26 1.93 0 0 -5.55zm25.59 14.12l-12.1 0c0.18,1.07 0.64,1.93 1.4,2.56 0.76,0.63 1.72,0.95 2.89,0.95 1.41,0 2.61,-0.49 3.62,-1.49l3.16 1.5c-0.79,1.12 -1.73,1.95 -2.83,2.5 -1.1,0.54 -2.41,0.81 -3.93,0.81 -2.35,0 -4.27,-0.74 -5.74,-2.23 -1.48,-1.48 -2.22,-3.34 -2.22,-5.57 0,-2.29 0.74,-4.19 2.22,-5.7 1.48,-1.51 3.33,-2.27 5.56,-2.27 2.36,0 4.29,0.76 5.77,2.26 1.48,1.51 2.22,3.49 2.22,5.97l-0.01 0.71 -0 0zm-3.75 -2.94c-0.25,-0.82 -0.74,-1.49 -1.47,-2.01 -0.74,-0.51 -1.58,-0.77 -2.56,-0.77 -1.05,0 -1.97,0.29 -2.77,0.87 -0.49,0.36 -0.96,1 -1.38,1.91l8.18 0 -0.01 0zm-51.15 -65.18c-0.55,2.63 -1.39,5.68 -3.88,9.83 -1.94,3.46 -4.43,7.34 -7.34,11.35 1.52,-4.43 5.68,-16.2 7.34,-19.8 1.11,-2.35 2.35,-3.46 3.04,-3.32 0.69,0.14 0.97,1.11 0.83,1.94zm35.72 19.25l0 0c-0.83,0 -1.66,0.41 -2.08,1.25 -20.91,34.48 -30.05,33.1 -30.05,33.1 -5.26,-3.05 15.51,-35.59 22.71,-46.66 0.97,-1.52 -0.14,-3.6 -1.94,-3.6l-4.02 0c-1.66,0 -3.32,0.83 -4.43,2.21 -3.74,4.99 -12.6,17.45 -17.45,30.74 -7.62,20.77 4.43,21.05 4.43,21.05 11.08,1.52 29.08,-27.42 34.06,-35.73 0.69,-1.11 -0.14,-2.35 -1.25,-2.35l0 0zm-10.52 -18.56c2.63,0 4.71,-1.25 4.71,-2.77 0,-1.52 -2.08,-2.77 -4.71,-2.77 -2.49,0 -4.71,1.25 -4.71,2.77 0,1.52 2.21,2.77 4.71,2.77z"/>
 </g>
</svg>
